<?xml version="1.0" standalone="no"?>
<!DOCTYPE svg PUBLIC "-//W3C//DTD SVG 20010904//EN"
 "http://www.w3.org/TR/2001/REC-SVG-20010904/DTD/svg10.dtd">
<svg version="1.0" xmlns="http://www.w3.org/2000/svg"
 width="500.000000pt" height="500.000000pt" viewBox="0 0 500.000000 500.000000"
 preserveAspectRatio="xMidYMid meet">

<g transform="translate(0.000000,500.000000) scale(0.100000,-0.100000)"
fill="#000000" stroke="none">
<path d="M2535 3308 c-15 -40 -33 -91 -41 -112 -9 -23 -11 -43 -6 -48 5 -5 55
-7 111 -6 l103 3 39 105 c22 57 37 110 35 117 -4 9 -34 13 -110 13 l-104 0
-27 -72z"/>
<path d="M1244 3066 c-280 -281 -284 -285 -284 -326 0 -41 4 -45 284 -326 156
-156 289 -285 297 -285 32 -3 47 5 97 54 35 35 52 59 52 77 0 19 -51 76 -227
252 l-228 228 228 228 c176 176 227 233 227 252 0 37 -96 130 -134 130 -24 0
-73 -45 -312 -284z"/>
<path d="M3362 3297 c-34 -35 -52 -61 -52 -77 0 -19 54 -79 227 -252 l228
-228 -228 -228 c-176 -176 -227 -233 -227 -252 0 -18 17 -42 53 -77 49 -49 64
-57 95 -54 8 0 141 128 296 284 295 294 307 310 280 363 -8 14 -137 149 -288
300 -316 317 -299 307 -384 221z"/>
<path d="M1646 3081 c-4 -5 23 -88 58 -183 66 -178 158 -421 178 -471 l11 -28
95 3 96 3 17 45 c24 67 107 286 136 360 59 153 93 255 89 267 -4 9 -31 13 -95
13 -90 0 -91 0 -105 -29 -20 -38 -126 -309 -126 -321 0 -36 -26 13 -88 168
l-71 177 -95 3 c-54 1 -97 -1 -100 -7z"/>
<path d="M2437 3048 c-32 -91 -108 -299 -152 -418 -25 -69 -59 -161 -75 -205
-15 -44 -44 -125 -64 -180 -20 -55 -36 -106 -36 -112 0 -10 29 -13 110 -13 61
0 110 2 110 3 0 4 12 38 118 327 76 209 145 398 189 519 18 52 31 101 29 108
-4 10 -33 13 -110 13 l-104 0 -15 -42z"/>
<path d="M2767 3018 c-14 -40 -68 -190 -121 -332 -53 -143 -94 -266 -92 -273
7 -19 529 -19 543 0 21 27 64 167 58 187 -6 19 -14 20 -157 20 -139 0 -150 1
-143 18 4 9 11 28 15 42 5 14 22 59 37 100 l29 75 174 6 c96 3 176 6 176 7 3
4 43 109 55 145 25 72 28 72 -279 75 l-270 2 -25 -72z"/>
<path d="M1013 1888 c135 -342 129 -330 174 -326 l36 3 73 168 73 167 -44 0
-43 0 -37 -92 c-20 -51 -42 -104 -47 -118 -9 -23 -14 -14 -57 90 l-48 115 -43
3 c-32 3 -41 0 -37 -10z"/>
<path d="M1400 1730 l0 -170 35 0 35 0 0 170 0 170 -35 0 -35 0 0 -170z"/>
<path d="M1558 1835 c-78 -84 -77 -99 7 -198 64 -75 67 -77 110 -77 25 0 45 3
45 7 0 3 -28 38 -62 77 -34 39 -68 78 -75 87 -11 13 -3 26 58 92 l71 77 -49
-1 c-46 0 -50 -3 -105 -64z"/>
<path d="M1740 1793 c0 -60 5 -125 11 -145 27 -99 188 -122 264 -38 17 19 20
39 23 156 l4 134 -36 0 -36 0 0 -99 c0 -99 -10 -149 -33 -163 -7 -4 -28 -8
-48 -8 -60 0 -69 19 -69 153 l0 117 -40 0 -40 0 0 -107z"/>
<path d="M2220 1729 l0 -170 38 3 37 3 3 168 2 167 -40 0 -40 0 0 -171z"/>
<path d="M2330 1871 c0 -28 2 -30 48 -33 l47 -3 3 -137 3 -138 34 0 35 0 0
140 0 140 45 0 c43 0 45 1 45 30 l0 30 -130 0 -130 0 0 -29z"/>
<path d="M2799 1877 c-107 -71 -86 -261 34 -306 36 -14 127 -14 162 -1 22 8
26 15 23 42 -2 24 -7 32 -18 28 -8 -2 -42 -6 -75 -8 -55 -3 -63 -1 -88 24 -22
22 -27 36 -27 78 0 58 21 91 66 102 27 7 98 1 127 -11 14 -6 17 -2 17 28 0 43
-9 47 -109 47 -64 0 -84 -4 -112 -23z"/>
<path d="M3072 1733 l3 -168 103 -3 102 -3 0 36 0 35 -65 0 -65 0 0 135 0 135
-40 0 -40 0 2 -167z"/>
<path d="M3330 1794 c0 -134 12 -178 59 -210 72 -48 193 -24 228 46 8 16 13
70 13 148 l0 122 -35 0 -35 0 0 -107 c0 -136 -9 -157 -69 -161 -73 -5 -81 10
-81 150 l0 118 -40 0 -40 0 0 -106z"/>
<path d="M3700 1730 l0 -170 101 0 c98 0 101 1 130 29 36 37 41 107 9 136 -19
17 -19 18 0 43 26 32 25 72 -1 106 -20 25 -24 26 -130 26 l-109 0 0 -170z
m178 83 c3 -18 -5 -27 -32 -40 -26 -12 -36 -23 -36 -40 0 -17 6 -23 23 -23 32
0 61 -33 52 -59 -5 -18 -15 -21 -61 -21 l-54 0 0 106 0 105 53 -3 c45 -3 52
-6 55 -25z"/>
<path d="M1333 1440 c0 -41 2 -56 4 -32 4 38 7 43 26 40 18 -2 23 -11 25 -41
4 -41 22 -42 22 -1 0 38 -18 64 -45 64 -17 0 -25 7 -28 23 -2 12 -4 -12 -4
-53z"/>
<path d="M1893 1440 c-1 -41 1 -66 4 -55 2 11 6 30 9 43 3 14 12 22 24 22 17
0 20 -7 20 -41 0 -24 4 -38 10 -34 14 9 13 68 -2 83 -7 7 -22 12 -34 12 -15 0
-24 7 -27 23 -2 12 -4 -12 -4 -53z"/>
<path d="M2181 1445 l-1 -71 33 1 c31 0 32 1 32 45 0 41 -2 45 -27 48 -18 2
-28 10 -31 25 -2 12 -5 -10 -6 -48z m54 -34 c-4 -13 -13 -21 -23 -19 -21 4
-27 34 -11 54 11 13 14 13 27 1 9 -9 11 -23 7 -36z"/>
<path d="M3290 1441 c0 -68 0 -69 28 -69 36 0 52 15 52 47 0 37 -14 55 -39 48
-17 -4 -21 -1 -21 19 0 13 -4 24 -10 24 -6 0 -10 -30 -10 -69z m58 -19 c3 -27
0 -32 -17 -32 -16 0 -21 6 -21 28 0 53 33 56 38 4z"/>
<path d="M1818 1482 c-7 -26 5 -105 17 -109 8 -2 11 44 6 115 -1 18 -18 15
-23 -6z"/>
<path d="M2510 1451 c0 -27 3 -56 6 -65 7 -17 34 -22 34 -6 0 6 -4 10 -10 10
-14 0 -12 54 2 68 9 9 9 12 0 12 -7 0 -12 7 -12 15 0 8 -4 15 -10 15 -5 0 -10
-22 -10 -49z"/>
<path d="M2808 1482 c-7 -26 5 -105 17 -109 6 -2 10 17 8 49 -1 29 -2 59 -3
66 0 18 -17 14 -22 -6z"/>
<path d="M3159 1483 c-4 -71 17 -133 35 -104 4 6 2 11 -3 11 -15 0 -14 53 1
68 9 9 9 12 0 12 -7 0 -12 7 -12 15 0 21 -20 19 -21 -2z"/>
<path d="M3524 1489 c-14 -23 -2 -119 15 -119 7 0 6 118 -2 126 -3 3 -9 0 -13
-7z"/>
<path d="M3588 1483 c-6 -31 6 -106 19 -110 8 -3 10 6 6 31 -3 22 -1 42 7 51
9 10 9 15 1 15 -6 0 -11 7 -11 15 0 21 -17 19 -22 -2z"/>
<path d="M1166 1448 c3 -13 12 -36 19 -53 l13 -30 15 35 16 35 11 -32 c15 -40
26 -35 40 18 14 51 6 62 -13 18 l-14 -34 -7 33 c-4 17 -11 32 -15 32 -4 0 -14
-15 -23 -32 l-15 -33 -7 33 c-4 17 -12 32 -17 32 -6 0 -7 -10 -3 -22z"/>
<path d="M1451 1456 c-16 -20 -10 -66 10 -79 10 -6 24 -7 35 -2 17 8 16 9 -8
13 -38 5 -36 22 2 22 22 0 30 5 30 18 0 38 -46 56 -69 28z m47 -14 c2 -7 -6
-12 -17 -12 -21 0 -27 11 -14 24 9 9 26 2 31 -12z"/>
<path d="M1559 1460 c-5 -32 -4 -72 3 -82 5 -8 8 1 8 23 0 33 15 60 32 56 3
-1 10 2 14 6 4 4 -6 7 -24 5 -18 -1 -32 -5 -33 -8z"/>
<path d="M1650 1449 c-23 -43 22 -101 53 -70 8 8 5 11 -10 11 -12 0 -25 5 -28
10 -4 6 7 10 24 10 23 0 31 5 31 18 0 42 -51 57 -70 21z m50 -10 c0 -5 -9 -9
-20 -9 -22 0 -27 16 -7 23 15 5 27 -1 27 -14z"/>
<path d="M2012 1458 c-25 -25 -6 -88 28 -88 10 0 22 5 25 10 3 6 -3 10 -14 10
-11 0 -23 5 -26 10 -4 6 7 10 24 10 23 0 31 5 31 18 0 22 -19 42 -40 42 -9 0
-21 -5 -28 -12z m46 -16 c2 -7 -6 -12 -17 -12 -21 0 -27 11 -14 24 9 9 26 2
31 -12z"/>
<path d="M2294 1446 c-12 -51 15 -88 52 -71 17 8 16 9 -8 13 -35 4 -37 22 -4
22 31 0 40 14 26 40 -16 29 -58 27 -66 -4z m54 -4 c2 -7 -6 -12 -17 -12 -21 0
-27 11 -14 24 9 9 26 2 31 -12z"/>
<path d="M2407 1458 c-7 -21 12 -48 33 -48 34 0 22 -20 -12 -21 -32 0 -32 -1
-10 -12 17 -8 29 -8 40 0 25 15 21 46 -6 53 -27 6 -26 26 1 23 9 -2 17 2 17 7
0 15 -58 12 -63 -2z"/>
<path d="M2591 1456 c-16 -20 -10 -66 10 -79 10 -6 24 -7 35 -2 17 8 16 9 -8
13 -38 5 -36 22 2 22 22 0 30 5 30 18 0 38 -46 56 -69 28z m49 -17 c0 -5 -9
-9 -20 -9 -22 0 -27 16 -7 23 15 5 27 -1 27 -14z"/>
<path d="M2696 1453 c-7 -18 17 -43 41 -43 7 0 13 -4 13 -10 0 -5 -15 -10 -32
-10 -28 -1 -30 -2 -15 -11 10 -6 30 -8 43 -5 33 9 30 48 -4 56 -30 7 -24 26 6
22 15 -2 21 1 17 7 -10 18 -62 13 -69 -6z"/>
<path d="M2934 1444 c-9 -37 11 -78 36 -71 14 3 20 0 20 -10 0 -11 -7 -14 -25
-11 -14 3 -25 1 -25 -4 0 -15 28 -20 49 -8 18 9 21 20 21 70 l0 60 -35 0 c-29
0 -36 -4 -41 -26z m56 -25 c0 -24 -4 -30 -17 -27 -22 4 -30 47 -12 59 20 12
29 1 29 -32z"/>
<path d="M3054 1457 c-18 -47 15 -98 52 -82 17 8 16 9 -8 13 -35 4 -37 22 -2
22 22 0 25 4 22 28 -2 21 -9 28 -31 30 -17 2 -29 -2 -33 -11z m42 -25 c-22 -5
-30 3 -21 18 5 8 11 7 22 -2 15 -12 14 -13 -1 -16z"/>
<path d="M3410 1449 c-25 -45 16 -94 57 -70 16 9 14 10 -9 11 -15 0 -30 5 -33
10 -4 6 7 10 24 10 31 0 38 11 25 44 -9 23 -51 20 -64 -5z m50 -10 c0 -5 -9
-9 -20 -9 -22 0 -27 16 -7 23 15 5 27 -1 27 -14z"/>
<path d="M3671 1456 c-16 -20 -10 -66 10 -79 10 -6 24 -7 35 -2 17 8 16 9 -8
13 -38 5 -36 22 2 22 22 0 30 5 30 18 0 38 -46 56 -69 28z m47 -14 c2 -7 -6
-12 -17 -12 -21 0 -27 11 -14 24 9 9 26 2 31 -12z"/>
<path d="M3770 1424 c0 -57 18 -66 22 -12 2 32 7 43 20 43 9 0 20 3 24 7 4 4
-10 7 -30 6 -36 -1 -36 -2 -36 -44z"/>
</g>
</svg>
