<?xml version="1.0" encoding="utf-8"?>
<!-- Generator: Adobe Illustrator 24.2.0, SVG Export Plug-In . SVG Version: 6.00 Build 0)  -->
<svg version="1.1" id="Layer_1" xmlns="http://www.w3.org/2000/svg" xmlns:xlink="http://www.w3.org/1999/xlink" x="0px" y="0px"
	 viewBox="0 0 676.8 345.6" style="enable-background:new 0 0 676.8 345.6;" xml:space="preserve">
<style type="text/css">
	.st0{fill:#FAAE59;}
	.st1{fill:#F7951C;}
	.st2{fill:#F7951D;}
	.st3{fill:none;}
	.st4{fill:#C82032;}
	.st5{fill:#F7961E;}
	.st6{fill:#374F8A;}
	.st7{fill:#FFFFFF;}
</style>
<g>
	<g>
		<g>
			<path class="st0" d="M304.5,297.6c0.5-0.1-7.8-0.2-7.3-0.3c3.6-0.5,15.9-0.7,19.5-0.6c11.7,0.1,23.4-0.1,35,0.1
				c3.4,0.2,19.2,0.6,22.6,0.8c2.7,0.1-7,0-4.4,0c-6.5,0.6-19.5,1.1-19.5,1.1s12.2,1.6,18.3,2c76.8,5,153.4,13.9,229.1,27.5
				c4,0.5,7.9,1.3,11.8,2.3c0,0.8,0.1,2.3,0.1,3.1l-0.9,0.1c-11,0.2-129.5-3.5-134.5-2.7c-12.2-0.8-53.3-1.5-61-1.6
				c-11.9,0.5-23.8-0.5-35.6-0.7c-20.3,0.1-40.7-0.3-61,0c-21,0.1-42-0.2-63,1.1c-13.7,0.1-27.3,0-41,0.2c-9-0.3-18,1.4-27,1.1
				c-19-0.3-38,1.9-57,1.7c-8-0.2-15.9,1.5-24,1.3c-10.4-0.2-20.7,1.8-31,1.5c-0.9-1.7-1.8-3.4-2.6-5.2c15.7-3.3,31.5-5.9,47.4-8.4
				c60.4-9.9,121.3-16.3,182.2-20.7c9.7-1.4,29.3-2.7,29.3-2.7S313,298.7,304.5,297.6z M126.5,325.2c-5,0.7-14.9,2.8-14.9,2.8
				s14.8-0.4,22.1-0.5c47.7-1.3,95.3-3.3,143-3.4c4.5-0.1,8.4-2.4,12.4-4.1c9.5-4.3,34.7-15.6,34.7-15.6S184.8,315.8,126.5,325.2z
				 M356.5,304.3c2.1,1.4,4.4,2.6,6.7,3.6c11,4.5,21.9,9.2,32.7,14.3c5.8,2.9,12.5,1.8,18.7,1.9c17.6,0.3,35.3,0.2,53,1.1
				c25.7,0.2,93.2,3.4,101.2,2.7c-8.5-2.4-92.6-13.7-125.9-16.9c-15.4-1.9-30.9-2.5-46.2-4.3C383.3,306.2,369.9,304.6,356.5,304.3z
				 M295.2,323.6l40.4-0.2l0-17.3L295.2,323.6z M344.9,306.3l0,17.1c0,0,33.8,0.8,40.3,0.2C382.8,322,344.9,306.3,344.9,306.3z"/>
		</g>
	</g>
	<g>
		<path class="st1" d="M286.7,297.8c5.9-0.3,11.9-0.7,17.8-0.2c8.5,1.1,25.5,1,25.5,1s-19.6,1.3-29.3,2.7
			c-61,4.4-121.9,10.8-182.2,20.7c-15.8,2.5-31.7,5.1-47.4,8.4c0.9,1.7,1.7,3.4,2.6,5.2c-10.4-0.2-54,2.7-65.4,4.1
			c-1.6,0.1-3.2-0.1-4.8-0.3c4.6-0.7,9.1-2,13.6-3.3c20.8-4.8,41.4-10,62.4-13.9C147.7,308.6,217.1,300.3,286.7,297.8z"/>
	</g>
	<g>
		<path class="st2" d="M663.4,338.5c-2.1-1.1-28.6-7.4-39.6-10.1c-34.4-7.6-69.2-13.8-104.2-18.5c-42.5-5.8-85.2-9.8-128-11.6
			c-7.2-0.7-14.5-0.9-21.7-0.8c-6.5,0.6-19.5,1.1-19.5,1.1s12.2,1.7,18.3,2c76.8,5,153.4,13.9,229.1,27.5c4,0.5,7.9,1.3,11.8,2.3
			c0,0.8,0.1,2.3,0.1,3.1l-0.9,0.1c-11,0.2-129.5-3.5-134.5-2.7c24.5,1.3,49,2.2,73.4,3.8c41.9,2.3,83.7,5.8,125.5,9.5
			C669.7,341.9,668.5,341,663.4,338.5z"/>
		<path class="st2" d="M323.9,304.3c0,0-139.1,11.5-197.4,20.9c-5,0.7-14.9,2.8-14.9,2.8s14.8-0.4,22.1-0.5
			c47.7-1.3,95.3-3.3,143-3.4c4.5-0.1,8.4-2.4,12.4-4.1C298.7,315.7,323.9,304.3,323.9,304.3z"/>
		<path class="st2" d="M568.9,327.9c-8.5-2.5-92.6-13.7-125.9-16.9c-15.4-1.9-30.9-2.5-46.2-4.3c-13.4-0.6-26.8-2.1-40.2-2.4
			c2.1,1.4,4.4,2.6,6.7,3.6c11,4.5,21.9,9.2,32.7,14.3c5.8,2.9,12.5,1.8,18.7,1.9c17.7,0.3,35.3,0.2,53,1.1
			C493.4,325.4,560.9,328.6,568.9,327.9z"/>
		<polygon class="st2" points="295.2,323.6 335.7,323.4 335.7,306.1 		"/>
		<path class="st2" d="M344.9,323.4c0,0,33.8,0.8,40.3,0.2c-2.4-1.6-40.3-17.3-40.3-17.3L344.9,323.4z"/>
	</g>
	<path class="st3" d="M149.5,59l-46.7,0c0.9,0,1.8,0.1,2.6,0.1c4.2,18.6,9,37,13,55.7l16.7,0c4.1-18.6,8.7-37.1,12.7-55.8
		C148.4,59,149,59,149.5,59z"/>
	<path class="st3" d="M299.2,174.9l0,54.5l33.3,0c-10.8-18.2-21.9-36.3-32.6-54.5L299.2,174.9z"/>
	<path class="st3" d="M159.3,59c0.1,0,0.3,0,0.4,0c0,18.6,0,37.2,0,55.8l0.5,0l0-55.8L159.3,59z"/>
	<path class="st3" d="M94.2,59l-0.5,0l0,55.8h0c0-18.6,0-37.2,0-55.8C93.9,59,94.1,59,94.2,59z"/>
	<path class="st3" d="M365.7,174.9c0,18.2,0,36.3,0,54.5h0.1L365.7,174.9L365.7,174.9z"/>
	<path class="st3" d="M91.6,114.8L91.6,114.8l0.1-19.2C91.7,101.9,91.7,108.3,91.6,114.8z"/>
	<path class="st3" d="M91.2,59c0.2,0,0.4,0,0.5,0c0,7.7,0,15.4,0,23.1l0-23.1H91.2z"/>
	<path class="st3" d="M162.2,172.9c0-17.1,0-34.3,0-51.4L162.2,172.9l25.1,0C179,172.9,170.6,172.9,162.2,172.9z"/>
	<path class="st3" d="M230.7,174.9l-43.8,0c-4.2,18.2-8.6,36.4-13,54.5l56.9,0C230.7,211.3,230.7,193.1,230.7,174.9z"/>
	<path class="st3" d="M162.3,59c0.5,0,0.9,0,1.4,0L162.3,59l-0.1,55.8l0.1,0C162.2,96.2,162.2,77.6,162.3,59z"/>
	<path class="st3" d="M230.7,59c3.1,0,6.2,0,9.3,0l-30.9,0c2,0,4,0,6.1,0c-4.5,18.6-9.4,37.1-13.8,55.7c-0.3,0-0.5,0-0.8,0l30.1,0
		C230.7,96.2,230.7,77.6,230.7,59z"/>
	<path class="st3" d="M450,172.9l27.5,0C468.4,172.9,459.2,172.9,450,172.9z"/>
	<path class="st3" d="M236,173l61.2,0v-0.1C276.8,173,256.4,172.9,236,173z"/>
	<path class="st3" d="M572.7,172.9L572.7,172.9c0-3.8,0-7.7,0-11.5L572.7,172.9z"/>
	<path class="st3" d="M91.7,116.7c0,9,0,17.9,0,26.9L91.7,116.7L91.7,116.7z"/>
	<path class="st3" d="M134.7,116.7l-15.6,0c2.3,10.1,4.6,20.2,7.2,30.3C130.2,137.3,131.5,126.7,134.7,116.7z"/>
	<path class="st3" d="M93.7,116.7L93.7,116.7l0,17.3C93.7,128.3,93.7,122.5,93.7,116.7z"/>
	<path class="st3" d="M159.7,116.7c0,18.7,0.1,37.5-0.1,56.2c-21.9-0.1-43.9-0.1-65.8,0c0-4.4-0.1-8.8-0.1-13.2l0,13.3l66.5,0
		l0-56.2H159.7z"/>
	<path class="st3" d="M230.7,116.7l-30,0c-4.2,18.8-8.9,37.5-13.3,56.2l43.4,0C230.6,154.2,230.8,135.5,230.7,116.7z"/>
	<path class="st3" d="M91.6,173c-3.7-0.1-7.3,0-11,0l11.1,0l0-26.8C91.7,155.1,91.7,164,91.6,173z"/>
	<path class="st3" d="M502.3,174.9c-0.1,18.2-0.1,36.3,0,54.5h0L502.3,174.9L502.3,174.9z"/>
	<path class="st3" d="M502.3,116.7c-0.1,18.7,0,37.5,0,56.2c-0.2,0-0.5,0-0.7,0l0.8,0L502.3,116.7L502.3,116.7z"/>
	<path class="st3" d="M159.7,175c0,18.2,0,36.3,0,54.5l0.5,0l0-54.5H159.7z"/>
	<path class="st3" d="M572.7,174.9l0,54.5h0C572.7,211.2,572.7,193.1,572.7,174.9L572.7,174.9z"/>
	<path class="st3" d="M162.2,184.5l0,31.9C162.2,205.8,162.2,195.1,162.2,184.5z"/>
	<path class="st3" d="M572.7,114.7L572.7,114.7c0-9.2,0-18.3,0-27.5L572.7,114.7z"/>
	<path class="st3" d="M91.7,57l0-55.6C91.7,19.9,91.7,38.5,91.7,57L91.7,57z"/>
	<path class="st3" d="M93.7,41l0,16h0C93.8,51.6,93.7,46.3,93.7,41z"/>
	<path class="st3" d="M91.7,175c0,18.2,0,36.4,0,54.5h0L91.7,175L91.7,175z"/>
	<path class="st3" d="M93.7,175l0,54.5h0C93.7,211.3,93.7,193.1,93.7,175L93.7,175z"/>
	<path class="st3" d="M488.6,58.9c4.5,0,9,0,13.5,0c0.1,18.6,0.1,37.1,0,55.7l0.1,0l0-55.8L488.6,58.9z"/>
	<path class="st4" d="M91.7,57c0-18.5,0-37,0-55.6c-22.2,0-44.4,0-66.6,0c4.2,18.9,8.7,37.7,13.4,56.5c0.1,0,0.1,0,0.2,0V57L91.7,57
		z"/>
	<path class="st4" d="M228.4,1.5c-22-0.1-44,0-66.1,0c-0.1,18.5-0.1,37,0,55.5l53.5,0C219.9,38.4,224.5,20,228.4,1.5z"/>
	<path class="st4" d="M93.7,57l11.1,0c-3.4-15.3-7.1-30.6-10.9-45.9c-0.1,3.7-0.2,7.4-0.2,11.1l0,18.7C93.7,46.3,93.8,51.6,93.7,57z
		"/>
	<path class="st4" d="M159.5,11.1c-3.8,15.2-7.5,30.6-11,45.9l11.2,0C159.6,41.7,160,26.4,159.5,11.1z"/>
	<path class="st4" d="M91.7,95.5l0-13.5c0-7.7,0-15.4,0-23.1c-0.2,0-0.4,0-0.5,0l-52.5,0c4.3,18.6,8.6,37.3,13.3,55.8l39.7,0
		C91.7,108.3,91.7,101.9,91.7,95.5z"/>
	<path class="st4" d="M102.8,59l-8.6,0c-0.2,0-0.3,0-0.5,0c0,18.6,0,37.2,0,55.8l24.7,0c-4-18.6-8.8-37.1-13-55.7
		C104.6,59,103.7,59,102.8,59z"/>
	<path class="st4" d="M159.3,59l-9.7,0c-0.6,0-1.1,0-1.7,0c-4.1,18.6-8.6,37.2-12.7,55.8l24.6,0c0-18.6,0-37.2,0-55.8
		C159.6,59,159.4,59,159.3,59z"/>
	<path class="st4" d="M215.3,59c-2,0-4,0-6.1,0l-45.5,0c-0.5,0-0.9,0-1.4,0c-0.1,18.6-0.1,37.2,0,55.8l38.4,0c0.3,0,0.5,0,0.8,0
		C205.9,96.1,210.8,77.6,215.3,59z"/>
	<path class="st4" d="M91.6,173c0.1-8.9,0.1-17.8,0.1-26.7l0-2.6c0-9,0-17.9,0-26.9l-39.5,0c4.4,18.7,9,37.5,13.3,56.2c0,0,0,0,0,0
		l15.1,0C84.3,172.9,88,172.9,91.6,173z"/>
	<path class="st4" d="M93.7,159.7c0,4.4,0,8.8,0.1,13.2c21.9-0.1,43.9-0.1,65.8,0c0.2-18.7,0.1-37.5,0.1-56.2l-25,0
		c-3.2,10-4.6,20.5-8.4,30.3c-2.6-10.1-4.9-20.2-7.2-30.3l-25.4,0c0,5.8,0,11.5,0,17.3L93.7,159.7z"/>
	<path class="st4" d="M162.2,116.7l0,4.8c0.1,17.1,0,34.2,0,51.4c8.4,0,16.8,0,25.1,0l0.1,0c4.4-18.8,9.2-37.4,13.3-56.2
		L162.2,116.7z"/>
	<path class="st4" d="M91.7,175l-25.5,0c3.9,18.2,8.6,36.3,12.7,54.5l12.8,0C91.7,211.3,91.7,193.1,91.7,175z"/>
	<path class="st4" d="M93.7,175c0,18.2,0,36.4,0,54.5l66,0c0-18.2,0-36.3,0-54.5L93.7,175z"/>
	<path class="st4" d="M162.2,175l0,9.6c0,10.6,0,21.2,0,31.9l0,13.1l11.7,0c4.3-18.2,8.8-36.3,13-54.5L162.2,175z"/>
	<path class="st4" d="M91.7,232.4c-4,0-8,0-12,0c3.1,13.5,6.4,26.9,9.5,40.3c0.6,2.8,1.2,5.5,2.3,8.2c0.2-5.8,0.2-11.6,0.2-17.4
		l0-4.4C91.7,250.2,91.7,241.3,91.7,232.4z"/>
	<path class="st4" d="M159.7,232.4c-22,0-44,0-66,0c0,18.7,0,37.3,0,56c22,0,44,0,66,0C159.7,269.7,159.7,251.1,159.7,232.4z"/>
	<path class="st4" d="M162.3,276.7c4.3-14.6,7.2-29.6,11-44.3c-3.7,0-7.4,0-11.1,0.1l0,6.3C162.2,251.4,162.1,264.1,162.3,276.7z"/>
	<path class="st5" d="M297.1,51.2l0-49.7c-22.1-0.3-44.3-0.1-66.4-0.1c0,18.5,0,37,0,55.5l66.3,0C297.1,55,297.1,53.1,297.1,51.2z"
		/>
	<path class="st5" d="M367.9,114c3.7-5.2,6.6-11,9.9-16.5c7.6-12.8,14.8-25.7,22.3-38.5l-32.3,0l0,31.4
		C367.8,98.2,367.8,106.1,367.9,114z"/>
	<path class="st5" d="M401.2,56.9c1.8-3.1,3.7-6.3,5.6-9.4c9-15.4,18.2-30.7,27.1-46.1c-22.1-0.1-44.1,0-66.2,0l0,55.5L401.2,56.9z"
		/>
	<path class="st5" d="M365.6,5.1c-10.4,17.1-20.2,34.6-30.2,51.8l30.4,0C365.7,39.7,365.9,22.4,365.6,5.1z"/>
	<path class="st5" d="M297.1,63.9c0-1.6,0-3.3,0-4.9c-3.5,0-7,0-10.5-0.1l-46.6,0c-3.1,0-6.2,0-9.3,0c0,18.6,0,37.2,0,55.7l66.4,0
		c0-2.2,0-4.3,0-6.5L297.1,63.9z"/>
	<path class="st5" d="M365.7,59c-1.6,0-3.2,0-4.8-0.1l-27.3,0c-6.6,10.8-12.9,21.9-19.5,32.8c-4.3,7.7-9.2,15.1-13.3,22.9l64.8,0
		C365.9,96.2,365.7,77.6,365.7,59z"/>
	<path class="st5" d="M297.2,172.9l0-56.1l-66.4,0c0,18.7-0.2,37.5,0.1,56.2l5.1,0C256.4,172.9,276.8,173,297.2,172.9z"/>
	<path class="st5" d="M299.3,172.9c21.6,0.1,43.1,0,64.7,0c-4.2-9.3-10.7-17.4-15.4-26.4c5.6-10,11.8-19.6,17.3-29.7v0l-66.6,0
		C299.3,135.4,299.1,154.2,299.3,172.9z"/>
	<path class="st5" d="M230.7,174.9c0,18.2,0,36.3,0,54.5l66.4,0l0-54.5L230.7,174.9z"/>
	<path class="st5" d="M365.7,174.9l-65.8,0c10.7,18.2,21.8,36.3,32.6,54.5l33.2,0C365.7,211.3,365.7,193.1,365.7,174.9z"/>
	<path class="st5" d="M367.8,178.9c0,2.6,0,5.2-0.1,7.8l0,42.7l30.7,0c-3.3-6.2-7.2-12-10.7-18C381.1,200.6,374.7,189.5,367.8,178.9
		z"/>
	<path class="st5" d="M297.2,232.5c-22.1-0.3-44.3-0.1-66.4-0.1c0,18.6,0,37.3,0,56c22.2,0,44.4,0.2,66.5-0.1c0,0,0-0.1,0-0.1h-0.1
		L297.2,232.5z"/>
	<path class="st5" d="M334.4,232.5c10.1,17.5,20.6,34.9,31.2,52.1c0.2-17.4,0.1-34.7,0.1-52.1C355.3,232.4,344.9,232.4,334.4,232.5z
		"/>
	<path class="st5" d="M434.5,288.4c-11.3-18.6-22.7-37.2-34.1-55.9c-10.9-0.1-21.8-0.1-32.7-0.1l0,56
		C390,288.4,412.2,288.4,434.5,288.4z"/>
	<path class="st6" d="M502.2,1.4c-22.1,0-44.3,0-66.4,0c0,18.5,0,37,0,55.5l66.4,0C502.3,38.4,502.3,19.9,502.2,1.4z"/>
	<path class="st6" d="M572.7,87.2c0,9.2,0,18.3,0.1,27.5l65.8,0c0.1-18.6,0.1-37.2,0.1-55.7l-66,0L572.7,87.2z"/>
	<path class="st6" d="M638.7,56.9c0-18.5,0-37,0-55.5c-22,0-44,0-66,0c0,15.2,0,30.4,0,45.6l0,9.9L638.7,56.9z"/>
	<path class="st6" d="M502.2,59c-4.5,0-9,0-13.5,0l-40.3,0c-4.2,0-8.4,0-12.6,0c0,18.6,0,37.2,0,55.7l66.4,0
		C502.3,96.1,502.3,77.5,502.2,59z"/>
	<path class="st6" d="M502.3,116.7l-66.5,0c0,18.7-0.1,37.5,0.1,56.2l14.2,0c9.2,0,18.4,0,27.5,0l23.9,0c0.2,0,0.5,0,0.7,0
		C502.3,154.2,502.2,135.4,502.3,116.7z"/>
	<path class="st6" d="M572.7,161.4c0,3.8,0,7.7,0.1,11.5l65.8,0c0.2-18.7,0.1-37.5,0.1-56.2l-66,0L572.7,161.4z"/>
	<path class="st6" d="M502.3,174.9l-66.5,0c0,18.2,0,36.3,0,54.5l66.5,0C502.2,211.3,502.2,193.1,502.3,174.9z"/>
	<path class="st6" d="M572.7,229.4l66,0c0-18.2,0-36.3,0-54.5l-66,0C572.7,193.1,572.7,211.2,572.7,229.4z"/>
	<path class="st6" d="M435.7,232.4c0,10,0,20,0,30.1c0.6,10.5,8.9,18.8,18,22.9c7.2,3.3,15.3,3.2,23,3c8.5-0.1,17,0.1,25.5-0.1
		c-0.1-18.6-0.1-37.2,0-55.8C480.1,232.3,457.9,232.5,435.7,232.4z"/>
	<path class="st6" d="M570.7,288.4c0-18.7,0-37.3,0-56c-22.1,0-44.3-0.1-66.4,0.1l0,55.8C526.4,288.5,548.6,288.4,570.7,288.4z"/>
	<path class="st6" d="M605.8,288.4c7.1,0,14.2-1.9,20.1-5.8c6.5-4.4,12.1-11.1,12.8-19.1c0.1-10.4,0-20.7,0-31.1c-22,0-44,0-66,0
		l0,56C583.7,288.4,594.7,288.4,605.8,288.4z"/>
	<rect x="297.2" y="174.9" class="st7" width="2" height="54.5"/>
	<polygon class="st7" points="297.2,232.5 297.2,288.2 297.3,288.2 299.2,288.2 299.2,231.5 297.2,231.5 	"/>
	<polygon class="st7" points="504.3,1.5 502.3,1.5 502.3,56.9 504.3,56.9 	"/>
	<rect x="502.3" y="58.9" class="st7" width="2" height="55.8"/>
</g>
</svg>
